# Created by Metasequoia

mtllib model.mtl

v 14.000000 -5.000000 41.000000
v 14.000000 -5.000000 -39.000000
v -14.000000 0.000000 46.000000
v -14.000000 -5.000000 41.000000
v 14.000000 0.000000 46.000000
v 14.000000 0.000000 -44.000000
v -14.000000 0.000000 -44.000000
v -14.000000 -5.000000 -39.000000
v -14.000000 -10.000000 -34.000000
v -20.000000 -10.000000 -34.000000
v -20.000000 0.000000 -44.000000
v -20.000000 0.000000 46.000000
v -20.000000 -10.000000 36.000000
v -14.000000 -10.000000 36.000000
v 14.000000 -10.000000 36.000000
v 20.000000 -10.000000 36.000000
v 20.000000 0.000000 46.000000
v 20.000000 0.000000 -44.000000
v 20.000000 -10.000000 -34.000000
v 20.000000 10.000000 36.000000
v 20.000000 10.000000 -44.000000
v -20.000000 10.000000 -44.000000
v -20.000000 10.000000 36.000000
v 14.000000 -10.000000 -34.000000
# 24 vertices

vt 0.00000 1.00000
# 1 texture vertices

vn 0.00000 -0.70711 0.70711
vn 0.00000 -0.92388 0.38268
vn 0.00000 -0.92388 -0.38268
vn 0.00000 -0.70711 -0.70711
vn -1.00000 0.00000 0.00000
vn 1.00000 0.00000 0.00000
vn 0.00000 0.92388 0.38268
vn 0.00000 1.00000 0.00000
vn 0.00000 0.70711 0.70711
vn 0.00000 0.00000 -1.00000
# 10 normal vertices

usemtl mat1
f 3/1/1 4/1/2 1/1/2 5/1/1
f 8/1/3 7/1/4 6/1/4 2/1/3
usemtl mat2
f 7/1/4 9/1/3 10/1/3 11/1/4
f 10/1/5 13/1/5 12/1/5 11/1/5
f 13/1/2 14/1/2 3/1/1 12/1/1
f 5/1/1 15/1/2 16/1/2 17/1/1
f 16/1/6 19/1/6 18/1/6 17/1/6
usemtl mat1
f 20/1/7 21/1/8 22/1/8 23/1/7
usemtl mat2
f 19/1/3 24/1/3 6/1/4 18/1/4
f 19/1/3 16/1/2 15/1/2 24/1/3
f 10/1/3 9/1/3 14/1/2 13/1/2
f 2/1/5 24/1/5 15/1/5 1/1/5
f 4/1/6 14/1/6 9/1/6 8/1/6
usemtl mat1
f 8/1/3 2/1/3 1/1/2 4/1/2
f 12/1/9 17/1/9 20/1/7 23/1/7
f 11/1/5 12/1/5 23/1/5 22/1/5
f 21/1/10 18/1/10 11/1/10 22/1/10
f 20/1/6 17/1/6 18/1/6 21/1/6
# 18 elements

